<svg xmlns="http://www.w3.org/2000/svg" viewBox="0 0 4000 4000"><defs><style>.a{fill:#fff}</style></defs><rect width="4000" height="4000" class="a"/><path d="M3048,572V3428H952V572H3048m100-100H852V3528H3148V472Z" transform="translate(-0.5 -0.5)"/><path d="M2848,772V2244H1152V772H2848m100-100H1052V2344H2948V672Z" transform="translate(-0.5 -0.5)"/><path d="M1205.35,2878.77v60.61H1052v-60.61ZM1081.7,2823h83.65v213.67a17.59,17.59,0,0,0,1.67,8.11,10.45,10.45,0,0,0,5.15,4.85,21.62,21.62,0,0,0,8.94,1.59,51.74,51.74,0,0,0,8.86-.91c3.39-.61,5.89-1.11,7.5-1.52l12.13,58.8q-5.61,1.66-16,4.09a142.17,142.17,0,0,1-24.62,3.18q-28.8,1.51-48.34-6t-29.4-23.72q-9.86-16.22-9.55-40.61Z" transform="translate(-0.5 -0.5)"/><path d="M1348.4,3115.77q-37.28,0-64.17-14.32a98.49,98.49,0,0,1-41.37-41.22q-14.47-26.89-14.48-64.48,0-36.06,14.55-63a104,104,0,0,1,41.07-42q26.52-15,62.58-15,26.37,0,47.74,8.18a100.58,100.58,0,0,1,36.52,23.72,105.42,105.42,0,0,1,23.33,37.65q8.19,22.13,8.19,49.86v19.4H1254.45v-46.07h130.93a32.91,32.91,0,0,0-5.08-17.66,34.28,34.28,0,0,0-13.18-12,39.8,39.8,0,0,0-18.72-4.32,40.49,40.49,0,0,0-18.64,4.32,35.19,35.19,0,0,0-13.56,11.9,32.86,32.86,0,0,0-5.38,17.73v49.7a41.81,41.81,0,0,0,4.7,20A34.07,34.07,0,0,0,1329,3052q8.79,5,21.22,5a49.28,49.28,0,0,0,15.84-2.43,34.84,34.84,0,0,0,12.35-7.05,27.7,27.7,0,0,0,7.57-11.13h76.38q-3.94,24.24-18.64,42.05T1404.85,3106Q1380.67,3115.77,1348.4,3115.77Z" transform="translate(-0.5 -0.5)"/><path d="M1496.3,3111.53V2878.77h79.4V2923h2.43q7.26-21.83,24.85-34.55t41.82-12.73q24.56,0,42.28,13a51.89,51.89,0,0,1,21.37,34.33h2.42q5.91-21.37,25.16-34.33t45.16-13q33.48,0,54.32,21.52t20.84,57.28v157H1772.7V2975.75q0-15.3-7.73-24t-20.76-8.71q-12.89,0-20.38,8.71t-7.5,24v135.78h-80V2975.75q0-15.3-7.73-24t-20.76-8.71A27.11,27.11,0,0,0,1593,2947a25.87,25.87,0,0,0-9.63,11.29,41.36,41.36,0,0,0-3.41,17.5v135.78Z" transform="translate(-0.5 -0.5)"/><path d="M1897.56,3198.81v-320h83v40.61h1.81a71.42,71.42,0,0,1,13.34-21.75,65.05,65.05,0,0,1,21.82-15.91q13-6,30.31-6a85.17,85.17,0,0,1,43.87,12.27q20.84,12.28,33.94,38.64t13.11,68.5q0,40.3-12.5,66.83T2093,3101.53a84.47,84.47,0,0,1-45.69,13q-16.37,0-29.17-5.38a64.84,64.84,0,0,1-21.82-14.7,66.53,66.53,0,0,1-13.87-21.14h-1.21v125.47Zm81.83-203.66q0,17,4.48,29.32t12.72,19.1a30.32,30.32,0,0,0,19.78,6.74q11.52,0,19.62-6.59t12.43-18.95q4.32-12.34,4.32-29.62t-4.32-29.63q-4.32-12.34-12.43-18.94t-19.62-6.59a30.76,30.76,0,0,0-19.78,6.59q-8.25,6.6-12.72,18.94T1979.39,2995.15Z" transform="translate(-0.5 -0.5)"/><path d="M2257.61,2801.18v310.35H2174V2801.18Z" transform="translate(-0.5 -0.5)"/><path d="M2364.9,3115.17q-22.28,0-39.33-7.35a58.66,58.66,0,0,1-26.74-22.36q-9.7-15-9.7-38.18,0-19.09,6.51-32.66a58.91,58.91,0,0,1,18.19-22.2,85.62,85.62,0,0,1,27.2-13.18,163.12,163.12,0,0,1,33.56-5.91,315.4,315.4,0,0,0,31.45-3.71q11.89-2.2,17.2-6.22a12.73,12.73,0,0,0,5.3-10.68v-.61q0-9.09-7-13.94t-17.88-4.85q-12,0-19.47,5.23t-9,16h-77a79.33,79.33,0,0,1,13.56-39.17q12-18,35.23-28.8t57.89-10.83q25,0,44.86,5.83t33.79,16.22a72.7,72.7,0,0,1,21.29,24.24,63.26,63.26,0,0,1,7.35,30.08v159.42H2434V3078.8h-1.82a67.6,67.6,0,0,1-16.9,21.06,63.27,63.27,0,0,1-22.58,11.67A100.51,100.51,0,0,1,2364.9,3115.17Zm27.27-52.74a41.76,41.76,0,0,0,18-3.94,34.44,34.44,0,0,0,13.71-11.36q5.31-7.43,5.31-18V3009.7c-2.23.91-4.57,1.76-7.05,2.57s-5.1,1.57-7.88,2.28-5.71,1.36-8.79,2-6.29,1.16-9.62,1.66a47.87,47.87,0,0,0-15.84,4.93,23.62,23.62,0,0,0-9.09,8.33,21,21,0,0,0-3,11q0,9.69,6.82,14.85T2392.17,3062.43Z" transform="translate(-0.5 -0.5)"/><path d="M2691,2878.77v60.61H2537.64v-60.61ZM2567.34,2823H2651v213.67a17.72,17.72,0,0,0,1.67,8.11,10.49,10.49,0,0,0,5.15,4.85,21.65,21.65,0,0,0,8.94,1.59,51.84,51.84,0,0,0,8.87-.91c3.38-.61,5.88-1.11,7.5-1.52l12.12,58.8q-5.61,1.66-16,4.09a142.17,142.17,0,0,1-24.62,3.18q-28.8,1.51-48.34-6t-29.4-23.72q-9.85-16.22-9.55-40.61Z" transform="translate(-0.5 -0.5)"/><path d="M2834,3115.77q-37.27,0-64.17-14.32a98.6,98.6,0,0,1-41.37-41.22q-14.48-26.89-14.47-64.48,0-36.06,14.55-63a103.91,103.91,0,0,1,41.06-42q26.52-15,62.59-15,26.36,0,47.73,8.18a100.41,100.41,0,0,1,36.52,23.72,105.58,105.58,0,0,1,23.34,37.65q8.17,22.13,8.18,49.86v19.4H2740.09v-46.07H2871a32.82,32.82,0,0,0-5.08-17.66,34.28,34.28,0,0,0-13.18-12,39.78,39.78,0,0,0-18.72-4.32,40.45,40.45,0,0,0-18.63,4.32,35.29,35.29,0,0,0-13.57,11.9,33,33,0,0,0-5.38,17.73v49.7a41.81,41.81,0,0,0,4.7,20,34.1,34.1,0,0,0,13.49,13.79q8.79,5,21.21,5a49.28,49.28,0,0,0,15.84-2.43,34.75,34.75,0,0,0,12.35-7.05,27.82,27.82,0,0,0,7.58-11.13H2948q-3.95,24.24-18.64,42.05T2890.49,3106Q2866.33,3115.77,2834,3115.77Z" transform="translate(-0.5 -0.5)"/></svg>